<svg xmlns="http://www.w3.org/2000/svg" xmlns:xlink="http://www.w3.org/1999/xlink" contentStyleType="text/css" data-diagram-type="DESCRIPTION" height="344px" preserveAspectRatio="none" style="width:523px;height:344px;background:#FFFFFF;" version="1.1" viewBox="0 0 523 344" width="523px" zoomAndPan="magnify"><title>Arquitectura general (Componentes React + Servicios)</title><defs/><g><g class="title" data-source-line="1"><text fill="#000000" font-family="sans-serif" font-size="14" font-weight="bold" lengthAdjust="spacing" textLength="433.2891" x="38.3485" y="22.9951">Arquitectura general (Componentes React + Servicios)</text></g><!--entity App--><g class="entity" data-entity="App" data-source-line="3" data-uid="ent0002" id="entity_App"><rect fill="#F1F1F1" height="46.2969" rx="2.5" ry="2.5" style="stroke:#181818;stroke-width:0.5;" width="67.3506" x="202.87" y="44.2969"/><rect fill="#F1F1F1" height="10" style="stroke:#181818;stroke-width:0.5;" width="15" x="250.2206" y="49.2969"/><rect fill="#F1F1F1" height="2" style="stroke:#181818;stroke-width:0.5;" width="4" x="248.2206" y="51.2969"/><rect fill="#F1F1F1" height="2" style="stroke:#181818;stroke-width:0.5;" width="4" x="248.2206" y="55.2969"/><text fill="#000000" font-family="sans-serif" font-size="14" lengthAdjust="spacing" textLength="27.3506" x="217.87" y="77.292">App</text></g><!--entity Generator--><g class="entity" data-entity="Generator" data-source-line="4" data-uid="ent0003" id="entity_Generator"><rect fill="#F1F1F1" height="46.2969" rx="2.5" ry="2.5" style="stroke:#181818;stroke-width:0.5;" width="111.0938" x="7" y="150.5869"/><rect fill="#F1F1F1" height="10" style="stroke:#181818;stroke-width:0.5;" width="15" x="98.0938" y="155.5869"/><rect fill="#F1F1F1" height="2" style="stroke:#181818;stroke-width:0.5;" width="4" x="96.0938" y="157.5869"/><rect fill="#F1F1F1" height="2" style="stroke:#181818;stroke-width:0.5;" width="4" x="96.0938" y="161.5869"/><text fill="#000000" font-family="sans-serif" font-size="14" lengthAdjust="spacing" textLength="71.0938" x="22" y="183.582">Generator</text></g><!--entity PStrength--><g class="entity" data-entity="PStrength" data-source-line="5" data-uid="ent0004" id="entity_PStrength"><rect fill="#F1F1F1" height="46.2969" rx="2.5" ry="2.5" style="stroke:#181818;stroke-width:0.5;" width="167.1348" x="152.98" y="150.5869"/><rect fill="#F1F1F1" height="10" style="stroke:#181818;stroke-width:0.5;" width="15" x="300.1148" y="155.5869"/><rect fill="#F1F1F1" height="2" style="stroke:#181818;stroke-width:0.5;" width="4" x="298.1148" y="157.5869"/><rect fill="#F1F1F1" height="2" style="stroke:#181818;stroke-width:0.5;" width="4" x="298.1148" y="161.5869"/><text fill="#000000" font-family="sans-serif" font-size="14" lengthAdjust="spacing" textLength="127.1348" x="167.98" y="183.582">PasswordStrength</text></g><!--entity Breach--><g class="entity" data-entity="Breach" data-source-line="6" data-uid="ent0005" id="entity_Breach"><rect fill="#F1F1F1" height="46.2969" rx="2.5" ry="2.5" style="stroke:#181818;stroke-width:0.5;" width="132.1895" x="355.45" y="150.5869"/><rect fill="#F1F1F1" height="10" style="stroke:#181818;stroke-width:0.5;" width="15" x="467.6395" y="155.5869"/><rect fill="#F1F1F1" height="2" style="stroke:#181818;stroke-width:0.5;" width="4" x="465.6395" y="157.5869"/><rect fill="#F1F1F1" height="2" style="stroke:#181818;stroke-width:0.5;" width="4" x="465.6395" y="161.5869"/><text fill="#000000" font-family="sans-serif" font-size="14" lengthAdjust="spacing" textLength="92.1895" x="370.45" y="183.582">BreachCheck</text></g><!--entity Crypto--><g class="entity" data-entity="Crypto" data-source-line="7" data-uid="ent0006" id="entity_Crypto"><rect fill="#F1F1F1" height="78.8906" rx="2.5" ry="2.5" style="stroke:#181818;stroke-width:0.5;" width="221.2959" x="15.9" y="256.8869"/><rect fill="#F1F1F1" height="10" style="stroke:#181818;stroke-width:0.5;" width="15" x="217.1959" y="261.8869"/><rect fill="#F1F1F1" height="2" style="stroke:#181818;stroke-width:0.5;" width="4" x="215.1959" y="263.8869"/><rect fill="#F1F1F1" height="2" style="stroke:#181818;stroke-width:0.5;" width="4" x="215.1959" y="267.8869"/><text fill="#000000" font-family="sans-serif" font-size="14" lengthAdjust="spacing" textLength="60.3135" x="30.9" y="289.882">crypto.js</text><text fill="#000000" font-family="sans-serif" font-size="14" lengthAdjust="spacing" textLength="181.2959" x="30.9" y="306.1789">(secureRandomPassword,</text><text fill="#000000" font-family="sans-serif" font-size="14" lengthAdjust="spacing" textLength="66.541" x="30.9" y="322.4757">sha1Hex)</text></g><!--entity HIBP--><g class="entity" data-entity="HIBP" data-source-line="8" data-uid="ent0007" id="entity_HIBP"><path d="M336.11,275.5369 C336.11,265.5369 421.548,265.5369 421.548,265.5369 C421.548,265.5369 506.986,265.5369 506.986,275.5369 L506.986,317.1306 C506.986,327.1306 421.548,327.1306 421.548,327.1306 C421.548,327.1306 336.11,327.1306 336.11,317.1306 L336.11,275.5369" fill="#F1F1F1" style="stroke:#181818;stroke-width:0.5;"/><path d="M336.11,275.5369 C336.11,285.5369 421.548,285.5369 421.548,285.5369 C421.548,285.5369 506.986,285.5369 506.986,275.5369" fill="none" style="stroke:#181818;stroke-width:0.5;"/><text fill="#000000" font-family="sans-serif" font-size="14" lengthAdjust="spacing" textLength="150.876" x="346.11" y="302.532">API Pwned Passwords</text><text fill="#000000" font-family="sans-serif" font-size="14" lengthAdjust="spacing" textLength="101.4248" x="346.11" y="318.8289">(range/:prefix)</text></g><!--link App to Generator--><g class="link" data-entity-1="App" data-entity-2="Generator" data-source-line="10" data-uid="lnk8" id="link_App_Generator"><path d="M202.58,88.7969 C173.11,106.4669 135.6559,128.9114 105.1859,147.1814" fill="none" id="App-to-Generator" style="stroke:#181818;stroke-width:1;"/><polygon fill="#181818" points="100.04,150.2669,109.8158,149.0692,104.3282,147.6956,105.7018,142.2081,100.04,150.2669" style="stroke:#181818;stroke-width:1;"/></g><!--link App to PStrength--><g class="link" data-entity-1="App" data-entity-2="PStrength" data-source-line="11" data-uid="lnk9" id="link_App_PStrength"><path d="M236.55,91.0669 C236.55,108.5669 236.55,126.6669 236.55,144.1469" fill="none" id="App-to-PStrength" style="stroke:#181818;stroke-width:1;"/><polygon fill="#181818" points="236.55,150.1469,240.55,141.1469,236.55,145.1469,232.55,141.1469,236.55,150.1469" style="stroke:#181818;stroke-width:1;"/></g><!--link App to Breach--><g class="link" data-entity-1="App" data-entity-2="Breach" data-source-line="12" data-uid="lnk10" id="link_App_Breach"><path d="M270.48,87.5669 C301.77,105.2169 343.0335,128.47 376.1635,147.15" fill="none" id="App-to-Breach" style="stroke:#181818;stroke-width:1;"/><polygon fill="#181818" points="381.39,150.0969,375.5149,142.1922,377.0346,147.6411,371.5857,149.1609,381.39,150.0969" style="stroke:#181818;stroke-width:1;"/></g><!--link Generator to Crypto--><g class="link" data-entity-1="Generator" data-entity-2="Crypto" data-source-line="13" data-uid="lnk11" id="link_Generator_Crypto"><path d="M74.43,197.1369 C83.26,213.7569 92.6867,231.5373 103.0967,251.1473" fill="none" id="Generator-to-Crypto" style="stroke:#181818;stroke-width:1;"/><polygon fill="#181818" points="105.91,256.4469,105.2231,246.622,103.5656,252.0306,98.157,250.373,105.91,256.4469" style="stroke:#181818;stroke-width:1;"/></g><!--link Breach to Crypto--><g class="link" data-entity-1="Breach" data-entity-2="Crypto" data-source-line="14" data-uid="lnk12" id="link_Breach_Crypto"><path d="M366.41,197.2769 C325.8,213.8769 275.1136,234.5959 227.3036,254.1459" fill="none" id="Breach-to-Crypto" style="stroke:#181818;stroke-width:1;"/><polygon fill="#181818" points="221.75,256.4169,231.5944,256.7129,226.378,254.5244,228.5665,249.308,221.75,256.4169" style="stroke:#181818;stroke-width:1;"/></g><!--link Breach to HIBP--><g class="link" data-entity-1="Breach" data-entity-2="HIBP" data-source-line="15" data-uid="lnk13" id="link_Breach_HIBP"><path d="M421.55,197.1369 C421.55,216.3469 421.55,238.1869 421.55,259.3169" fill="none" id="Breach-to-HIBP" style="stroke:#181818;stroke-width:1;"/><polygon fill="#181818" points="421.55,265.3169,425.55,256.3169,421.55,260.3169,417.55,256.3169,421.55,265.3169" style="stroke:#181818;stroke-width:1;"/></g><!--SRC=[TO-xSW8n34LxVuM62YQ1JDeKcO4jWCu3BOtYLNRDmpQoDeI_Pp5huYQLHlSUFQvOEHBC-TnP8ICT8pJaYF48uygVWdVaX29i28t02so9VwonFawKCjc7qJo44M24lfRoCgqIpybyTYMYCSQBvtehJAwHDf4wToMvuFw7jch971Bqw4l2y3M8d-tZpeqZcOvfWwxsftpZTUTYY-yh-fsa3LNYLOs2NnYfZw7Ne2-EQiWZzrMChg6tZy3qROV9rNgXbUhJmdJwMGJBob-0h0pVFj4a3Wyyl7-K-waR]--></g></svg>