<svg xmlns="http://www.w3.org/2000/svg" xmlns:xlink="http://www.w3.org/1999/xlink" contentStyleType="text/css" data-diagram-type="SEQUENCE" height="562px" preserveAspectRatio="none" style="width:497px;height:562px;background:#FFFFFF;" version="1.1" viewBox="0 0 497 562" width="497px" zoomAndPan="magnify"><title>Secuencia: Verificar filtraciones (HIBP)</title><defs/><g><text fill="#000000" font-family="sans-serif" font-size="14" font-weight="bold" lengthAdjust="spacing" textLength="307.542" x="93.7856" y="27.9951">Secuencia: Verificar filtraciones (HIBP)</text><g><title>Usuario</title><rect fill="#000000" fill-opacity="0.00000" height="363.3281" width="8" x="30.6021" y="118.5938"/><line style="stroke:#181818;stroke-width:0.5;stroke-dasharray:5,5;" x1="34" x2="34" y1="118.5938" y2="481.9219"/></g><g><title>BreachCheck</title><rect fill="#000000" fill-opacity="0.00000" height="363.3281" width="8" x="172.605" y="118.5938"/><line style="stroke:#181818;stroke-width:0.5;stroke-dasharray:5,5;" x1="176.5103" x2="176.5103" y1="118.5938" y2="481.9219"/></g><g><title>sha1Hex..</title><rect fill="#000000" fill-opacity="0.00000" height="363.3281" width="8" x="360.8101" y="118.5938"/><line style="stroke:#181818;stroke-width:0.5;stroke-dasharray:5,5;" x1="364.8086" x2="364.8086" y1="118.5938" y2="481.9219"/></g><g><title>API HIBP</title><rect fill="#000000" fill-opacity="0.00000" height="363.3281" width="8" x="450.4624" y="118.5938"/><line style="stroke:#181818;stroke-width:0.5;stroke-dasharray:5,5;" x1="453.8115" x2="453.8115" y1="118.5938" y2="481.9219"/></g><g class="participant participant-head" data-participant="Usuario"><text fill="#000000" font-family="sans-serif" font-size="14" lengthAdjust="spacing" textLength="53.2041" x="5" y="115.292">Usuario</text><ellipse cx="34.6021" cy="50.7969" fill="#E2E2F0" rx="8" ry="8" style="stroke:#181818;stroke-width:0.5;"/><path d="M34.6021,58.7969 L34.6021,85.7969 M21.6021,66.7969 L47.6021,66.7969 M34.6021,85.7969 L21.6021,100.7969 M34.6021,85.7969 L47.6021,100.7969" fill="none" style="stroke:#181818;stroke-width:0.5;"/></g><g class="participant participant-tail" data-participant="Usuario"><text fill="#000000" font-family="sans-serif" font-size="14" lengthAdjust="spacing" textLength="53.2041" x="5" y="493.917">Usuario</text><ellipse cx="34.6021" cy="505.7188" fill="#E2E2F0" rx="8" ry="8" style="stroke:#181818;stroke-width:0.5;"/><path d="M34.6021,513.7188 L34.6021,540.7188 M21.6021,521.7188 L47.6021,521.7188 M34.6021,540.7188 L21.6021,555.7188 M34.6021,540.7188 L47.6021,555.7188" fill="none" style="stroke:#181818;stroke-width:0.5;"/></g><g class="participant participant-head" data-participant="BreachCheck"><rect fill="#E2E2F0" height="30.2969" rx="2.5" ry="2.5" style="stroke:#181818;stroke-width:0.5;" width="106.1895" x="123.5103" y="87.2969"/><text fill="#000000" font-family="sans-serif" font-size="14" lengthAdjust="spacing" textLength="92.1895" x="130.5103" y="107.292">BreachCheck</text></g><g class="participant participant-tail" data-participant="BreachCheck"><rect fill="#E2E2F0" height="30.2969" rx="2.5" ry="2.5" style="stroke:#181818;stroke-width:0.5;" width="106.1895" x="123.5103" y="480.9219"/><text fill="#000000" font-family="sans-serif" font-size="14" lengthAdjust="spacing" textLength="92.1895" x="130.5103" y="500.917">BreachCheck</text></g><g class="participant participant-head" data-participant="CryptoUtils"><rect fill="#E2E2F0" height="30.2969" rx="2.5" ry="2.5" style="stroke:#181818;stroke-width:0.5;" width="86.0029" x="321.8086" y="87.2969"/><text fill="#000000" font-family="sans-serif" font-size="14" lengthAdjust="spacing" textLength="72.0029" x="328.8086" y="107.292">sha1Hex()</text></g><g class="participant participant-tail" data-participant="CryptoUtils"><rect fill="#E2E2F0" height="30.2969" rx="2.5" ry="2.5" style="stroke:#181818;stroke-width:0.5;" width="86.0029" x="321.8086" y="480.9219"/><text fill="#000000" font-family="sans-serif" font-size="14" lengthAdjust="spacing" textLength="72.0029" x="328.8086" y="500.917">sha1Hex()</text></g><g class="participant participant-head" data-participant="HIBP"><rect fill="#E2E2F0" height="30.2969" rx="2.5" ry="2.5" style="stroke:#181818;stroke-width:0.5;" width="73.3018" x="417.8115" y="87.2969"/><text fill="#000000" font-family="sans-serif" font-size="14" lengthAdjust="spacing" textLength="59.3018" x="424.8115" y="107.292">API HIBP</text></g><g class="participant participant-tail" data-participant="HIBP"><rect fill="#E2E2F0" height="30.2969" rx="2.5" ry="2.5" style="stroke:#181818;stroke-width:0.5;" width="73.3018" x="417.8115" y="480.9219"/><text fill="#000000" font-family="sans-serif" font-size="14" lengthAdjust="spacing" textLength="59.3018" x="424.8115" y="500.917">API HIBP</text></g><g class="message" data-participant-1="Usuario" data-participant-2="BreachCheck"><polygon fill="#181818" points="164.605,145.7266,174.605,149.7266,164.605,153.7266,168.605,149.7266" style="stroke:#181818;stroke-width:1;"/><line style="stroke:#181818;stroke-width:1;" x1="34.6021" x2="170.605" y1="149.7266" y2="149.7266"/><text fill="#000000" font-family="sans-serif" font-size="13" lengthAdjust="spacing" textLength="101.5625" x="41.6021" y="144.6606">Click "Verificar"</text></g><g class="message" data-participant-1="BreachCheck" data-participant-2="BreachCheck"><line style="stroke:#181818;stroke-width:1;" x1="176.605" x2="218.605" y1="178.8594" y2="178.8594"/><line style="stroke:#181818;stroke-width:1;" x1="218.605" x2="218.605" y1="178.8594" y2="191.8594"/><line style="stroke:#181818;stroke-width:1;" x1="177.605" x2="218.605" y1="191.8594" y2="191.8594"/><polygon fill="#181818" points="187.605,187.8594,177.605,191.8594,187.605,195.8594,183.605,191.8594" style="stroke:#181818;stroke-width:1;"/><text fill="#000000" font-family="sans-serif" font-size="13" lengthAdjust="spacing" textLength="168.8413" x="183.605" y="173.7935">reset estado (result,error)</text></g><g class="message" data-participant-1="BreachCheck" data-participant-2="BreachCheck"><line style="stroke:#181818;stroke-width:1;" x1="176.605" x2="218.605" y1="220.9922" y2="220.9922"/><line style="stroke:#181818;stroke-width:1;" x1="218.605" x2="218.605" y1="220.9922" y2="233.9922"/><line style="stroke:#181818;stroke-width:1;" x1="177.605" x2="218.605" y1="233.9922" y2="233.9922"/><polygon fill="#181818" points="187.605,229.9922,177.605,233.9922,187.605,237.9922,183.605,233.9922" style="stroke:#181818;stroke-width:1;"/><text fill="#000000" font-family="sans-serif" font-size="13" lengthAdjust="spacing" textLength="93.7231" x="183.605" y="215.9263">loading = true</text></g><g class="message" data-participant-1="BreachCheck" data-participant-2="CryptoUtils"><polygon fill="#181818" points="352.8101,259.125,362.8101,263.125,352.8101,267.125,356.8101,263.125" style="stroke:#181818;stroke-width:1;"/><line style="stroke:#181818;stroke-width:1;" x1="176.605" x2="358.8101" y1="263.125" y2="263.125"/><text fill="#000000" font-family="sans-serif" font-size="13" lengthAdjust="spacing" textLength="128.8066" x="183.605" y="258.0591">sha1Hex(password)</text></g><g class="message" data-participant-1="CryptoUtils" data-participant-2="BreachCheck"><polygon fill="#181818" points="187.605,288.2578,177.605,292.2578,187.605,296.2578,183.605,292.2578" style="stroke:#181818;stroke-width:1;"/><line style="stroke:#181818;stroke-width:1;stroke-dasharray:2,2;" x1="181.605" x2="363.8101" y1="292.2578" y2="292.2578"/><text fill="#000000" font-family="sans-serif" font-size="13" lengthAdjust="spacing" textLength="70.5415" x="193.605" y="287.1919">hash SHA1</text></g><g class="message" data-participant-1="BreachCheck" data-participant-2="HIBP"><polygon fill="#181818" points="442.4624,317.3906,452.4624,321.3906,442.4624,325.3906,446.4624,321.3906" style="stroke:#181818;stroke-width:1;"/><line style="stroke:#181818;stroke-width:1;" x1="176.605" x2="448.4624" y1="321.3906" y2="321.3906"/><text fill="#000000" font-family="sans-serif" font-size="13" lengthAdjust="spacing" textLength="159.6753" x="183.605" y="316.3247">GET /range/{primeros5}</text></g><g class="message" data-participant-1="HIBP" data-participant-2="BreachCheck"><polygon fill="#181818" points="187.605,346.5234,177.605,350.5234,187.605,354.5234,183.605,350.5234" style="stroke:#181818;stroke-width:1;"/><line style="stroke:#181818;stroke-width:1;stroke-dasharray:2,2;" x1="181.605" x2="453.4624" y1="350.5234" y2="350.5234"/><text fill="#000000" font-family="sans-serif" font-size="13" lengthAdjust="spacing" textLength="135.3384" x="193.605" y="345.4575">lista sufijos + counts</text></g><g class="message" data-participant-1="BreachCheck" data-participant-2="BreachCheck"><line style="stroke:#181818;stroke-width:1;" x1="176.605" x2="218.605" y1="379.6563" y2="379.6563"/><line style="stroke:#181818;stroke-width:1;" x1="218.605" x2="218.605" y1="379.6563" y2="392.6563"/><line style="stroke:#181818;stroke-width:1;" x1="177.605" x2="218.605" y1="392.6563" y2="392.6563"/><polygon fill="#181818" points="187.605,388.6563,177.605,392.6563,187.605,396.6563,183.605,392.6563" style="stroke:#181818;stroke-width:1;"/><text fill="#000000" font-family="sans-serif" font-size="13" lengthAdjust="spacing" textLength="174.2051" x="183.605" y="374.5903">match sufijo? setResult(...)</text></g><g class="message" data-participant-1="BreachCheck" data-participant-2="BreachCheck"><line style="stroke:#181818;stroke-width:1;" x1="176.605" x2="218.605" y1="421.7891" y2="421.7891"/><line style="stroke:#181818;stroke-width:1;" x1="218.605" x2="218.605" y1="421.7891" y2="434.7891"/><line style="stroke:#181818;stroke-width:1;" x1="177.605" x2="218.605" y1="434.7891" y2="434.7891"/><polygon fill="#181818" points="187.605,430.7891,177.605,434.7891,187.605,438.7891,183.605,434.7891" style="stroke:#181818;stroke-width:1;"/><text fill="#000000" font-family="sans-serif" font-size="13" lengthAdjust="spacing" textLength="97.9697" x="183.605" y="416.7231">loading = false</text></g><g class="message" data-participant-1="BreachCheck" data-participant-2="Usuario"><polygon fill="#181818" points="45.6021,459.9219,35.6021,463.9219,45.6021,467.9219,41.6021,463.9219" style="stroke:#181818;stroke-width:1;"/><line style="stroke:#181818;stroke-width:1;stroke-dasharray:2,2;" x1="39.6021" x2="175.605" y1="463.9219" y2="463.9219"/><text fill="#000000" font-family="sans-serif" font-size="13" lengthAdjust="spacing" textLength="118.0029" x="51.6021" y="458.856">Muestra resultado</text></g><!--SRC=[ZP51ImCn48Nl-HN3ddRHjlJWPK6bNSJs81HhlG_fR7SqtImp2IhYVtTTMzcsK3o5oNjvoViIE3Y29Tb8jMNCuPc4IxOeKB8BWfPzJGhfR3vTPCQW3LvWfH65lMbG0bjki0um5K9R5HNPruFzGZwQu5U1dG8g95hXU4RlQPOSs7xoEtsoc7T3Oipk6XZSzDCXXy9nkoP_RqrCNp-n2oa580suzf2sKtJXaaIyPESFEezhhZTm3K4Y7NlxpNBOzsfGzStBEZDzVN2INQ5Mi9nDniUn7OaSxk-UO2HORsZqsGXlIRnUVPbEFKrptBO3ZIM_U8KBi3xMGS-tssAmrUxCBRI87ZiowN0u_3UN4fqUWMdT-u_BuI6ss0NX5thB_ni0]--></g></svg>