<svg xmlns="http://www.w3.org/2000/svg" xmlns:xlink="http://www.w3.org/1999/xlink" contentStyleType="text/css" data-diagram-type="SEQUENCE" height="491px" preserveAspectRatio="none" style="width:678px;height:491px;background:#FFFFFF;" version="1.1" viewBox="0 0 678 491" width="678px" zoomAndPan="magnify"><title>Secuencia: Generar contraseña</title><defs/><g><text fill="#000000" font-family="sans-serif" font-size="14" font-weight="bold" lengthAdjust="spacing" textLength="247.0713" x="214.9058" y="27.9951">Secuencia: Generar contraseña</text><g><title>Usuario</title><rect fill="#000000" fill-opacity="0.00000" height="292.0625" width="8" x="30.6021" y="118.5938"/><line style="stroke:#181818;stroke-width:0.5;stroke-dasharray:5,5;" x1="34" x2="34" y1="118.5938" y2="410.6563"/></g><g><title>App</title><rect fill="#000000" fill-opacity="0.00000" height="292.0625" width="8" x="169.7295" y="118.5938"/><line style="stroke:#181818;stroke-width:0.5;stroke-dasharray:5,5;" x1="173.0542" x2="173.0542" y1="118.5938" y2="410.6563"/></g><g><title>Generator</title><rect fill="#000000" fill-opacity="0.00000" height="292.0625" width="8" x="299.6655" y="118.5938"/><line style="stroke:#181818;stroke-width:0.5;stroke-dasharray:5,5;" x1="303.1187" x2="303.1187" y1="118.5938" y2="410.6563"/></g><g><title>secureRandomPassword..</title><rect fill="#000000" fill-opacity="0.00000" height="292.0625" width="8" x="570.729" y="118.5938"/><line style="stroke:#181818;stroke-width:0.5;stroke-dasharray:5,5;" x1="574.5752" x2="574.5752" y1="118.5938" y2="410.6563"/></g><g class="participant participant-head" data-participant="Usuario"><text fill="#000000" font-family="sans-serif" font-size="14" lengthAdjust="spacing" textLength="53.2041" x="5" y="115.292">Usuario</text><ellipse cx="34.6021" cy="50.7969" fill="#E2E2F0" rx="8" ry="8" style="stroke:#181818;stroke-width:0.5;"/><path d="M34.6021,58.7969 L34.6021,85.7969 M21.6021,66.7969 L47.6021,66.7969 M34.6021,85.7969 L21.6021,100.7969 M34.6021,85.7969 L47.6021,100.7969" fill="none" style="stroke:#181818;stroke-width:0.5;"/></g><g class="participant participant-tail" data-participant="Usuario"><text fill="#000000" font-family="sans-serif" font-size="14" lengthAdjust="spacing" textLength="53.2041" x="5" y="422.6514">Usuario</text><ellipse cx="34.6021" cy="434.4531" fill="#E2E2F0" rx="8" ry="8" style="stroke:#181818;stroke-width:0.5;"/><path d="M34.6021,442.4531 L34.6021,469.4531 M21.6021,450.4531 L47.6021,450.4531 M34.6021,469.4531 L21.6021,484.4531 M34.6021,469.4531 L47.6021,484.4531" fill="none" style="stroke:#181818;stroke-width:0.5;"/></g><g class="participant participant-head" data-participant="App"><rect fill="#E2E2F0" height="30.2969" rx="2.5" ry="2.5" style="stroke:#181818;stroke-width:0.5;" width="41.3506" x="153.0542" y="87.2969"/><text fill="#000000" font-family="sans-serif" font-size="14" lengthAdjust="spacing" textLength="27.3506" x="160.0542" y="107.292">App</text></g><g class="participant participant-tail" data-participant="App"><rect fill="#E2E2F0" height="30.2969" rx="2.5" ry="2.5" style="stroke:#181818;stroke-width:0.5;" width="41.3506" x="153.0542" y="409.6563"/><text fill="#000000" font-family="sans-serif" font-size="14" lengthAdjust="spacing" textLength="27.3506" x="160.0542" y="429.6514">App</text></g><g class="participant participant-head" data-participant="Generator"><rect fill="#E2E2F0" height="30.2969" rx="2.5" ry="2.5" style="stroke:#181818;stroke-width:0.5;" width="85.0938" x="261.1187" y="87.2969"/><text fill="#000000" font-family="sans-serif" font-size="14" lengthAdjust="spacing" textLength="71.0938" x="268.1187" y="107.292">Generator</text></g><g class="participant participant-tail" data-participant="Generator"><rect fill="#E2E2F0" height="30.2969" rx="2.5" ry="2.5" style="stroke:#181818;stroke-width:0.5;" width="85.0938" x="261.1187" y="409.6563"/><text fill="#000000" font-family="sans-serif" font-size="14" lengthAdjust="spacing" textLength="71.0938" x="268.1187" y="429.6514">Generator</text></g><g class="participant participant-head" data-participant="CryptoUtils"><rect fill="#E2E2F0" height="30.2969" rx="2.5" ry="2.5" style="stroke:#181818;stroke-width:0.5;" width="196.3076" x="476.5752" y="87.2969"/><text fill="#000000" font-family="sans-serif" font-size="14" lengthAdjust="spacing" textLength="182.3076" x="483.5752" y="107.292">secureRandomPassword()</text></g><g class="participant participant-tail" data-participant="CryptoUtils"><rect fill="#E2E2F0" height="30.2969" rx="2.5" ry="2.5" style="stroke:#181818;stroke-width:0.5;" width="196.3076" x="476.5752" y="409.6563"/><text fill="#000000" font-family="sans-serif" font-size="14" lengthAdjust="spacing" textLength="182.3076" x="483.5752" y="429.6514">secureRandomPassword()</text></g><g class="message" data-participant-1="Usuario" data-participant-2="Generator"><polygon fill="#181818" points="291.6655,145.7266,301.6655,149.7266,291.6655,153.7266,295.6655,149.7266" style="stroke:#181818;stroke-width:1;"/><line style="stroke:#181818;stroke-width:1;" x1="34.6021" x2="297.6655" y1="149.7266" y2="149.7266"/><text fill="#000000" font-family="sans-serif" font-size="13" lengthAdjust="spacing" textLength="100.0327" x="41.6021" y="144.6606">Click "Generar"</text></g><g class="message" data-participant-1="Generator" data-participant-2="Generator"><line style="stroke:#181818;stroke-width:1;" x1="303.6655" x2="345.6655" y1="178.8594" y2="178.8594"/><line style="stroke:#181818;stroke-width:1;" x1="345.6655" x2="345.6655" y1="178.8594" y2="191.8594"/><line style="stroke:#181818;stroke-width:1;" x1="304.6655" x2="345.6655" y1="191.8594" y2="191.8594"/><polygon fill="#181818" points="314.6655,187.8594,304.6655,191.8594,314.6655,195.8594,310.6655,191.8594" style="stroke:#181818;stroke-width:1;"/><text fill="#000000" font-family="sans-serif" font-size="13" lengthAdjust="spacing" textLength="153.0674" x="310.6655" y="173.7935">recolecta length + opts</text></g><g class="message" data-participant-1="Generator" data-participant-2="CryptoUtils"><polygon fill="#181818" points="562.729,216.9922,572.729,220.9922,562.729,224.9922,566.729,220.9922" style="stroke:#181818;stroke-width:1;"/><line style="stroke:#181818;stroke-width:1;" x1="303.6655" x2="568.729" y1="220.9922" y2="220.9922"/><text fill="#000000" font-family="sans-serif" font-size="13" lengthAdjust="spacing" textLength="247.0635" x="310.6655" y="215.9263">secureRandomPassword(length, opts)</text></g><g class="message" data-participant-1="CryptoUtils" data-participant-2="Generator"><polygon fill="#181818" points="314.6655,246.125,304.6655,250.125,314.6655,254.125,310.6655,250.125" style="stroke:#181818;stroke-width:1;"/><line style="stroke:#181818;stroke-width:1;stroke-dasharray:2,2;" x1="308.6655" x2="573.729" y1="250.125" y2="250.125"/><text fill="#000000" font-family="sans-serif" font-size="13" lengthAdjust="spacing" textLength="95.7417" x="320.6655" y="245.0591">contraseña pw</text></g><g class="message" data-participant-1="Generator" data-participant-2="Generator"><line style="stroke:#181818;stroke-width:1;" x1="303.6655" x2="345.6655" y1="279.2578" y2="279.2578"/><line style="stroke:#181818;stroke-width:1;" x1="345.6655" x2="345.6655" y1="279.2578" y2="292.2578"/><line style="stroke:#181818;stroke-width:1;" x1="304.6655" x2="345.6655" y1="292.2578" y2="292.2578"/><polygon fill="#181818" points="314.6655,288.2578,304.6655,292.2578,314.6655,296.2578,310.6655,292.2578" style="stroke:#181818;stroke-width:1;"/><text fill="#000000" font-family="sans-serif" font-size="13" lengthAdjust="spacing" textLength="75.9751" x="310.6655" y="274.1919">setLast(pw)</text></g><g class="message" data-participant-1="Generator" data-participant-2="App"><polygon fill="#181818" points="184.7295,317.3906,174.7295,321.3906,184.7295,325.3906,180.7295,321.3906" style="stroke:#181818;stroke-width:1;"/><line style="stroke:#181818;stroke-width:1;" x1="178.7295" x2="302.6655" y1="321.3906" y2="321.3906"/><text fill="#000000" font-family="sans-serif" font-size="13" lengthAdjust="spacing" textLength="105.936" x="190.7295" y="316.3247">onGenerate(pw)</text></g><g class="message" data-participant-1="App" data-participant-2="App"><line style="stroke:#181818;stroke-width:1;" x1="173.7295" x2="215.7295" y1="350.5234" y2="350.5234"/><line style="stroke:#181818;stroke-width:1;" x1="215.7295" x2="215.7295" y1="350.5234" y2="363.5234"/><line style="stroke:#181818;stroke-width:1;" x1="174.7295" x2="215.7295" y1="363.5234" y2="363.5234"/><polygon fill="#181818" points="184.7295,359.5234,174.7295,363.5234,184.7295,367.5234,180.7295,363.5234" style="stroke:#181818;stroke-width:1;"/><text fill="#000000" font-family="sans-serif" font-size="13" lengthAdjust="spacing" textLength="110.4302" x="180.7295" y="345.4575">setPassword(pw)</text></g><g class="message" data-participant-1="App" data-participant-2="Usuario"><polygon fill="#181818" points="45.6021,388.6563,35.6021,392.6563,45.6021,396.6563,41.6021,392.6563" style="stroke:#181818;stroke-width:1;"/><line style="stroke:#181818;stroke-width:1;stroke-dasharray:2,2;" x1="39.6021" x2="172.7295" y1="392.6563" y2="392.6563"/><text fill="#000000" font-family="sans-serif" font-size="13" lengthAdjust="spacing" textLength="115.1274" x="51.6021" y="387.5903">Input se actualiza</text></g><!--SRC=[TL5BJiD03DtFAQoi6a4la0KIwW8XiQX0FO0rjM34CBPiHr5xAyx0nHZQa2OLBETzvZqzU_9Cy4Anfn8JTl10XHGL8XTNDFhwn10mEYlih4TD70JLKqo2nU5UPF4-swjwWMxq8CuxJza03HghUKhFMFRyiKMpWNM_QfiGnWXOtrr-WWusESLtQCPkJRXmLqAbo9cY8sGgh_u6Dy3YjZJCstJmPvUp-_PaRiFSiBvAdEq4ClpVpCYVq7mbGxiKrGKhpMK4wQJu0IUkMgTY4rdPtx4wU2pIUzL1FLIFEHtn6m00]--></g></svg>