<svg xmlns="http://www.w3.org/2000/svg" xmlns:xlink="http://www.w3.org/1999/xlink" contentStyleType="text/css" data-diagram-type="DESCRIPTION" height="452px" preserveAspectRatio="none" style="width:1132px;height:452px;background:#FFFFFF;" version="1.1" viewBox="0 0 1132 452" width="1132px" zoomAndPan="magnify"><defs/><g><!--cluster Guardian ? Contrase?as Seguras (Cliente React)--><g class="cluster" data-entity="Guardian . Contrase.as Seguras .Cliente React." data-source-line="8" data-uid="ent0003" id="cluster_Guardian . Contrase.as Seguras .Cliente React."><rect fill="none" height="439" rx="2.5" ry="2.5" style="stroke:#181818;stroke-width:1;" width="401.42" x="285.5" y="7"/><text fill="#000000" font-family="sans-serif" font-size="14" font-weight="bold" lengthAdjust="spacing" textLength="386.1758" x="293.1221" y="21.9951">Guardian — Contraseñas Seguras (Cliente React)</text></g><!--entity UC_Strength--><g class="entity" data-entity="UC_Strength" data-source-line="9" data-uid="ent0004" id="entity_UC_Strength"><ellipse cx="486.2087" cy="66.9993" fill="#F1F1F1" rx="97.5387" ry="25.3193" style="stroke:#181818;stroke-width:0.5;"/><text fill="#000000" font-family="sans-serif" font-size="14" lengthAdjust="spacing" textLength="119.0068" x="426.7052" y="62.4524">Evaluar fortaleza</text><text fill="#000000" font-family="sans-serif" font-size="14" lengthAdjust="spacing" textLength="138.0586" x="417.1794" y="78.7493">(PasswordStrength)</text></g><!--entity UC_Breach--><g class="entity" data-entity="UC_Breach" data-source-line="10" data-uid="ent0005" id="entity_UC_Breach"><ellipse cx="486.2111" cy="156.0022" fill="#F1F1F1" rx="133.7111" ry="29.1422" style="stroke:#181818;stroke-width:0.5;"/><text fill="#000000" font-family="sans-serif" font-size="14" lengthAdjust="spacing" textLength="140.6016" x="415.9103" y="146.7599">Verificar filtraciones</text><text fill="#000000" font-family="sans-serif" font-size="14" lengthAdjust="spacing" textLength="239.1689" x="366.6266" y="163.0567">(HaveIBeenPwned - BreachCheck)</text></g><!--entity UC_Generate--><g class="entity" data-entity="UC_Generate" data-source-line="11" data-uid="ent0006" id="entity_UC_Generate"><ellipse cx="486.2061" cy="244.002" fill="#F1F1F1" rx="94.1161" ry="24.242" style="stroke:#181818;stroke-width:0.5;"/><text fill="#000000" font-family="sans-serif" font-size="14" lengthAdjust="spacing" textLength="139.8086" x="416.3018" y="243.1741">Generar contraseña</text><text fill="#000000" font-family="sans-serif" font-size="14" lengthAdjust="spacing" textLength="82.0176" x="445.1973" y="259.471">(Generator)</text></g><!--entity UC_Copy--><g class="entity" data-entity="UC_Copy" data-source-line="12" data-uid="ent0007" id="entity_UC_Copy"><ellipse cx="486.2097" cy="324.0039" fill="#F1F1F1" rx="92.2697" ry="20.8539" style="stroke:#181818;stroke-width:0.5;"/><text fill="#000000" font-family="sans-serif" font-size="14" lengthAdjust="spacing" textLength="158.8604" x="406.7795" y="328.6524">Copiar al portapapeles</text></g><!--entity UC_Theme--><g class="entity" data-entity="UC_Theme" data-source-line="13" data-uid="ent0008" id="entity_UC_Theme"><ellipse cx="486.2058" cy="404.9972" fill="#F1F1F1" rx="113.0858" ry="25.0172" style="stroke:#181818;stroke-width:0.5;"/><text fill="#000000" font-family="sans-serif" font-size="14" lengthAdjust="spacing" textLength="204.5381" x="383.9368" y="409.6456">Cambiar modo (claro/oscuro)</text></g><!--entity User--><g class="entity" data-entity="User" data-source-line="6" data-uid="ent0002" id="entity_User"><ellipse cx="33" cy="221.85" fill="#F1F1F1" rx="16" ry="16" style="stroke:#181818;stroke-width:0.5;"/><path d="M33,241.85 C37,241.85 40,241.85 44,237.85 C52,237.85 60,245.85 60,253.85 L60,257.85 C60,261.85 56,265.85 52,265.85 L14,265.85 C10,265.85 6,261.85 6,257.85 L6,253.85 C6,245.85 14,237.85 22,237.85 C26,241.85 29,241.85 33,241.85" fill="#F1F1F1" style="stroke:#181818;stroke-width:0.5;"/><text fill="#000000" font-family="sans-serif" font-size="14" lengthAdjust="spacing" textLength="53.2041" x="6.3979" y="279.3451">Usuario</text></g><!--entity HIBP--><g class="entity" data-entity="HIBP" data-source-line="16" data-uid="ent0009" id="entity_HIBP"><ellipse cx="1029.8179" cy="55.7" fill="#F1F1F1" rx="16" ry="16" style="stroke:#181818;stroke-width:0.5;"/><path d="M1029.8179,75.7 C1033.8179,75.7 1036.8179,75.7 1040.8179,71.7 C1048.8179,71.7 1056.8179,79.7 1056.8179,87.7 L1056.8179,91.7 C1056.8179,95.7 1052.8179,99.7 1048.8179,99.7 L1010.8179,99.7 C1006.8179,99.7 1002.8179,95.7 1002.8179,91.7 L1002.8179,87.7 C1002.8179,79.7 1010.8179,71.7 1018.8179,71.7 C1022.8179,75.7 1025.8179,75.7 1029.8179,75.7" fill="#F1F1F1" style="stroke:#181818;stroke-width:0.5;"/><text fill="#000000" font-family="sans-serif" font-size="14" lengthAdjust="spacing" textLength="148.7021" x="933.92" y="113.1951">HaveIBeenPwned API</text><text fill="#000000" font-family="sans-serif" font-size="14" lengthAdjust="spacing" textLength="191.7959" x="933.92" y="129.492">(api.pwnedpasswords.com)</text></g><!--entity WebCrypto--><g class="entity" data-entity="WebCrypto" data-source-line="17" data-uid="ent0010" id="entity_WebCrypto"><ellipse cx="1029.8247" cy="184.7" fill="#F1F1F1" rx="16" ry="16" style="stroke:#181818;stroke-width:0.5;"/><path d="M1029.8247,204.7 C1033.8247,204.7 1036.8247,204.7 1040.8247,200.7 C1048.8247,200.7 1056.8247,208.7 1056.8247,216.7 L1056.8247,220.7 C1056.8247,224.7 1052.8247,228.7 1048.8247,228.7 L1010.8247,228.7 C1006.8247,228.7 1002.8247,224.7 1002.8247,220.7 L1002.8247,216.7 C1002.8247,208.7 1010.8247,200.7 1018.8247,200.7 C1022.8247,204.7 1025.8247,204.7 1029.8247,204.7" fill="#F1F1F1" style="stroke:#181818;stroke-width:0.5;"/><text fill="#000000" font-family="sans-serif" font-size="14" lengthAdjust="spacing" textLength="109.1494" x="975.25" y="242.1951">Web Crypto API</text><text fill="#000000" font-family="sans-serif" font-size="14" lengthAdjust="spacing" textLength="84.5264" x="975.25" y="258.492">(sha1, RNG)</text></g><!--entity Clipboard--><g class="entity" data-entity="Clipboard" data-source-line="18" data-uid="ent0011" id="entity_Clipboard"><ellipse cx="1029.8172" cy="313.7" fill="#F1F1F1" rx="16" ry="16" style="stroke:#181818;stroke-width:0.5;"/><path d="M1029.8172,333.7 C1033.8172,333.7 1036.8172,333.7 1040.8172,329.7 C1048.8172,329.7 1056.8172,337.7 1056.8172,345.7 L1056.8172,349.7 C1056.8172,353.7 1052.8172,357.7 1048.8172,357.7 L1010.8172,357.7 C1006.8172,357.7 1002.8172,353.7 1002.8172,349.7 L1002.8172,345.7 C1002.8172,337.7 1010.8172,329.7 1018.8172,329.7 C1022.8172,333.7 1025.8172,333.7 1029.8172,333.7" fill="#F1F1F1" style="stroke:#181818;stroke-width:0.5;"/><text fill="#000000" font-family="sans-serif" font-size="14" lengthAdjust="spacing" textLength="91.5947" x="956.16" y="371.1951">Portapapeles</text><text fill="#000000" font-family="sans-serif" font-size="14" lengthAdjust="spacing" textLength="147.3145" x="956.16" y="387.492">(navigator.clipboard)</text></g><!--link User to UC_Strength--><g class="link" data-entity-1="User" data-entity-2="UC_Strength" data-source-line="21" data-uid="lnk12" id="link_User_UC_Strength"><path d="M51.23,204.89 C60.57,187.87 73.68,169.09 90.5,157 C178.26,93.94 296.9934,74.5713 382.6234,68.8313" fill="none" id="User-to-UC_Strength" style="stroke:#181818;stroke-width:1;"/><polygon fill="#181818" points="388.61,68.43,379.3626,65.0409,383.6212,68.7644,379.8977,73.023,388.61,68.43" style="stroke:#181818;stroke-width:1;"/><text fill="#000000" font-family="sans-serif" font-size="13" lengthAdjust="spacing" textLength="123.9824" x="118.5" y="83.0669">escribe contraseña</text></g><!--link User to UC_Breach--><g class="link" data-entity-1="User" data-entity-2="UC_Breach" data-source-line="22" data-uid="lnk13" id="link_User_UC_Breach"><path d="M60.77,230.46 C69.99,226.25 80.52,221.95 90.5,219 C179.67,192.64 277.6811,177.3114 356.5211,168.0314" fill="none" id="User-to-UC_Breach" style="stroke:#181818;stroke-width:1;"/><polygon fill="#181818" points="362.48,167.33,353.0741,164.4095,357.5143,167.9145,354.0093,172.3547,362.48,167.33" style="stroke:#181818;stroke-width:1;"/><text fill="#000000" font-family="sans-serif" font-size="13" lengthAdjust="spacing" textLength="124.8076" x="118" y="178.0669">solicita verificación</text></g><!--link User to UC_Generate--><g class="link" data-entity-1="User" data-entity-2="UC_Generate" data-source-line="23" data-uid="lnk14" id="link_User_UC_Generate"><path d="M60.87,244 C124.62,244 281.45,244 385.86,244" fill="none" id="User-to-UC_Generate" style="stroke:#181818;stroke-width:1;"/><polygon fill="#181818" points="391.86,244,382.86,240,386.86,244,382.86,248,391.86,244" style="stroke:#181818;stroke-width:1;"/><text fill="#000000" font-family="sans-serif" font-size="13" lengthAdjust="spacing" textLength="123.0874" x="118.5" y="240.0669">configura y genera</text></g><!--link User to UC_Copy--><g class="link" data-entity-1="User" data-entity-2="UC_Copy" data-source-line="24" data-uid="lnk15" id="link_User_UC_Copy"><path d="M60.73,257.65 C69.96,261.87 80.49,266.15 90.5,269 C193.14,298.24 309.4092,311.7306 390.3792,318.2206" fill="none" id="User-to-UC_Copy" style="stroke:#181818;stroke-width:1;"/><polygon fill="#181818" points="396.36,318.7,387.7084,313.9937,391.376,318.3005,387.0692,321.9681,396.36,318.7" style="stroke:#181818;stroke-width:1;"/><text fill="#000000" font-family="sans-serif" font-size="13" lengthAdjust="spacing" textLength="177.9375" x="91.5" y="265.0669">copia contraseña generada</text></g><!--link User to UC_Theme--><g class="link" data-entity-1="User" data-entity-2="UC_Theme" data-source-line="25" data-uid="lnk16" id="link_User_UC_Theme"><path d="M51.34,283.11 C60.64,299.73 73.68,317.81 90.5,329 C174.3,384.77 282.9977,401.5166 367.1477,405.7766" fill="none" id="User-to-UC_Theme" style="stroke:#181818;stroke-width:1;"/><polygon fill="#181818" points="373.14,406.08,364.3537,401.6301,368.1464,405.8272,363.9493,409.6199,373.14,406.08" style="stroke:#181818;stroke-width:1;"/><text fill="#000000" font-family="sans-serif" font-size="13" lengthAdjust="spacing" textLength="84.0811" x="138" y="325.0669">alterna tema</text></g><!--link UC_Breach to HIBP--><g class="link" data-entity-1="UC_Breach" data-entity-2="HIBP" data-source-line="29" data-uid="lnk17" id="link_UC_Breach_HIBP"><path d="M602.07,141.15 C700.66,128.41 835.1295,111.0291 927.5895,99.0791" fill="none" id="UC_Breach-to-HIBP" style="stroke:#181818;stroke-width:1;stroke-dasharray:7,7;"/><polygon fill="#181818" points="933.54,98.31,924.1015,95.4966,928.5812,98.9509,925.127,103.4306,933.54,98.31" style="stroke:#181818;stroke-width:1;"/><text fill="#000000" font-family="sans-serif" font-size="13" lengthAdjust="spacing" textLength="199.6211" x="703.92" y="99.0669">consulta /range/{SHA1-prefix}</text></g><!--link UC_Breach to WebCrypto--><g class="link" data-entity-1="UC_Breach" data-entity-2="WebCrypto" data-source-line="30" data-uid="lnk18" id="link_UC_Breach_WebCrypto"><path d="M606.74,169.02 C721.54,181.53 883.7653,199.2001 969.0253,208.4901" fill="none" id="UC_Breach-to-WebCrypto" style="stroke:#181818;stroke-width:1;stroke-dasharray:7,7;"/><polygon fill="#181818" points="974.99,209.14,966.4762,204.1887,970.0194,208.5984,965.6097,212.1416,974.99,209.14" style="stroke:#181818;stroke-width:1;"/><text fill="#000000" font-family="sans-serif" font-size="13" lengthAdjust="spacing" textLength="184.4756" x="711.42" y="177.0669">calcula SHA-1 (prefijo/sufijo)</text></g><!--link UC_Generate to WebCrypto--><g class="link" data-entity-1="UC_Generate" data-entity-2="WebCrypto" data-source-line="31" data-uid="lnk19" id="link_UC_Generate_WebCrypto"><path d="M580.45,243.65 C664.99,242.73 792.99,239.82 903.92,231 C927.24,229.15 946.9345,226.8568 968.8945,223.8768" fill="none" id="UC_Generate-to-WebCrypto" style="stroke:#181818;stroke-width:1;stroke-dasharray:7,7;"/><polygon fill="#181818" points="974.84,223.07,965.3839,220.3165,969.8854,223.7423,966.4596,228.2439,974.84,223.07" style="stroke:#181818;stroke-width:1;"/><text fill="#000000" font-family="sans-serif" font-size="13" lengthAdjust="spacing" textLength="184.3169" x="711.42" y="227.0669">genera bytes seguros (RNG)</text></g><!--link UC_Copy to Clipboard--><g class="link" data-entity-1="UC_Copy" data-entity-2="Clipboard" data-source-line="32" data-uid="lnk20" id="link_UC_Copy_Clipboard"><path d="M577.56,327.34 C683.8,331.26 852.0541,337.4685 950.0341,341.0885" fill="none" id="UC_Copy-to-Clipboard" style="stroke:#181818;stroke-width:1;stroke-dasharray:7,7;"/><polygon fill="#181818" points="956.03,341.31,947.1838,336.9804,951.0334,341.1254,946.8885,344.975,956.03,341.31" style="stroke:#181818;stroke-width:1;"/><text fill="#000000" font-family="sans-serif" font-size="13" lengthAdjust="spacing" textLength="85.0967" x="760.92" y="329.0669">escribe texto</text></g><!--SRC=[NLDBRjim4Dth50DlOWELFzkY212hWUrDODX9kobGZAcnp8Oc1PAoumO1UeXUeiiWksvzavwaGybIPAya3jzxytd3A_WiCREuHKW94dJ6XPy7Po26IO4sbQZZoUtTVNG5OtIO6Y0Df40StrAP6KOhi9GRc6KQdzBHS3WSd1CLhJru0rPc6m-fj2IyD3foZrBdoBa1XJTswG-A0FVap9QYg8n1vy6nbZGTGCTLaOsYG4UTCRPJvu5_ltv3OhItwEZuoj0bPGKVe9ieITeJB8W5UnruZW0AHuA1qBdTeM89M1lhKT5F_AQxStHkRsowz9PqvZUzAdNolGwq1RwGbMifWeHKd5rmN-HOPOexces9z7olAULPZYqNi4as91uRnIhMrfkG9ijguhqN5gkYF8w6UOfGcvkON38L5UIXdHnpKkHg1jyUpj2uNGNurh2ZNQ7Gce5neh2cINA_8JRYfR7YegUR-Onhmrpsyt3EJtDpVM6sbSPqDfxNvA-qWiGUSjw3YkWsEFe0Yxj9XUNxwhecp5jDC5pZJcPX1dsXPBuoR7n5JEfZn1kw87NoW3ij5mS-nTSWwhqkd8d25a7CqPQdy1782IjNr1xz6RGoYu7EA2caHzYTp1Vo-ARFiBKzZ6QvjGox20V8ol0PCjXIejYxTkeJDZr7buum79Kdgn4yRJ4AVSzunRDw_S0V_mZDXV7wEygEVzlljHUzzzBlNvSULMMwGd5J0yjlYmRFo-dDACujhUNJomMbiIhmK8b28J0y7a6t9Fmm0rU4JvchcSKbjUeGLWVF9RlmNjcZRbY8g1vCe3J-jZpozEJDVm00]--></g></svg>